<?xml version="1.0" standalone="no"?><!DOCTYPE svg PUBLIC "-//W3C//DTD SVG 1.1//EN" "http://www.w3.org/Graphics/SVG/1.1/DTD/svg11.dtd"><svg t="1592726786651" class="icon" viewBox="0 0 1024 1024" version="1.1" xmlns="http://www.w3.org/2000/svg" p-id="4751" xmlns:xlink="http://www.w3.org/1999/xlink" width="100" height="100"><defs><style type="text/css"></style></defs><path d="M341.888 888.32v5.12c0 30.08 24.448 54.528 54.528 54.528h34.944a50.368 50.368 0 0 0 43.264 24.896h74.752a50.304 50.304 0 0 0 43.264-24.896h34.944c30.08 0 54.464-24.448 54.464-54.528v-4.864H343.168c-0.448 0-0.768-0.256-1.28-0.256zM512 51.2a387.2 387.2 0 0 0-386.752 386.688 386.816 386.816 0 0 0 216.704 347.264v52.416c0.448 0 0.768-0.256 1.28-0.256h338.88v-52.16a386.816 386.816 0 0 0 216.704-347.264A387.2 387.2 0 0 0 512.064 51.2z" p-id="4752" fill="#e6e6e6"></path></svg>